{
    "asset" : {
        "generator" : "Khronos glTF Blender I/O v3.4.49",
        "version" : "2.0"
    },
    "scene" : 0,
    "scenes" : [
        {
            "name" : "Scene",
            "nodes" : [
                0,
                1,
                2,
                3,
                4,
                5
            ]
        }
    ],
    "nodes" : [
        {
            "mesh" : 0,
            "name" : "Eleevon1",
            "translation" : [
                0.12108325958251953,
                1.4047620296478271,
                -4.606886863708496
            ]
        },
        {
            "mesh" : 1,
            "name" : "Elevon2",
            "translation" : [
                1.8753468990325928,
                1.2908596992492676,
                -4.576569557189941
            ]
        },
        {
            "mesh" : 2,
            "name" : "Rudder",
            "rotation" : [
                -0.053957659751176834,
                -0.053957659751176834,
                -0.7050450444221497,
                0.705045223236084
            ],
            "translation" : [
                -0.4414859712123871,
                2.535959243774414,
                -4.6223297119140625
            ]
        },
        {
            "mesh" : 3,
            "name" : "canard",
            "rotation" : [
                0.04907786473631859,
                -0.048789698630571365,
                -0.13592635095119476,
                0.9882990121841431
            ],
            "translation" : [
                0.09311389923095703,
                0.8361194133758545,
                4.349851608276367
            ]
        },
        {
            "mesh" : 4,
            "name" : "Engine",
            "rotation" : [
                -0.7117829918861389,
                0,
                0,
                0.7023994326591492
            ],
            "translation" : [
                -0.4688720703125,
                0.8285691738128662,
                -3.6755921840667725
            ]
        },
        {
            "mesh" : 5,
            "name" : "Hull",
            "rotation" : [
                -0.70710688829422,
                0,
                0,
                0.7071066498756409
            ],
            "translation" : [
                -0.4703275263309479,
                0.8271479606628418,
                1.5204060077667236
            ]
        }
    ],
    "meshes" : [
        {
            "name" : "Elevon1",
            "primitives" : [
                {
                    "attributes" : {
                        "POSITION" : 0,
                        "TEXCOORD_0" : 1,
                        "NORMAL" : 2
                    },
                    "indices" : 3
                }
            ]
        },
        {
            "name" : "Elevon2",
            "primitives" : [
                {
                    "attributes" : {
                        "POSITION" : 4,
                        "TEXCOORD_0" : 5,
                        "NORMAL" : 6
                    },
                    "indices" : 7
                }
            ]
        },
        {
            "name" : "Mesh",
            "primitives" : [
                {
                    "attributes" : {
                        "POSITION" : 8,
                        "TEXCOORD_0" : 9,
                        "NORMAL" : 10
                    },
                    "indices" : 11
                }
            ]
        },
        {
            "name" : "canard",
            "primitives" : [
                {
                    "attributes" : {
                        "POSITION" : 12,
                        "TEXCOORD_0" : 13,
                        "NORMAL" : 14
                    },
                    "indices" : 15
                }
            ]
        },
        {
            "name" : "Engine",
            "primitives" : [
                {
                    "attributes" : {
                        "POSITION" : 16,
                        "TEXCOORD_0" : 17,
                        "NORMAL" : 18
                    },
                    "indices" : 19
                }
            ]
        },
        {
            "name" : "Hull",
            "primitives" : [
                {
                    "attributes" : {
                        "POSITION" : 20,
                        "TEXCOORD_0" : 21,
                        "NORMAL" : 22
                    },
                    "indices" : 23
                },
                {
                    "attributes" : {
                        "POSITION" : 24,
                        "TEXCOORD_0" : 25,
                        "NORMAL" : 26
                    },
                    "indices" : 27
                }
            ]
        }
    ],
    "accessors" : [
        {
            "bufferView" : 0,
            "componentType" : 5126,
            "count" : 24,
            "max" : [
                0.5545554757118225,
                0.10787773877382278,
                0.3943967819213867
            ],
            "min" : [
                -0.5518286824226379,
                -0.0587502121925354,
                -0.14155063033103943
            ],
            "type" : "VEC3"
        },
        {
            "bufferView" : 1,
            "componentType" : 5126,
            "count" : 24,
            "type" : "VEC2"
        },
        {
            "bufferView" : 2,
            "componentType" : 5126,
            "count" : 24,
            "type" : "VEC3"
        },
        {
            "bufferView" : 3,
            "componentType" : 5123,
            "count" : 36,
            "type" : "SCALAR"
        },
        {
            "bufferView" : 4,
            "componentType" : 5126,
            "count" : 40,
            "max" : [
                1.0068693161010742,
                0.15685415267944336,
                0.4509575366973877
            ],
            "min" : [
                -1.1789436340332031,
                -0.12345058470964432,
                -0.17912150919437408
            ],
            "type" : "VEC3"
        },
        {
            "bufferView" : 5,
            "componentType" : 5126,
            "count" : 40,
            "type" : "VEC2"
        },
        {
            "bufferView" : 6,
            "componentType" : 5126,
            "count" : 40,
            "type" : "VEC3"
        },
        {
            "bufferView" : 7,
            "componentType" : 5123,
            "count" : 60,
            "type" : "SCALAR"
        },
        {
            "bufferView" : 8,
            "componentType" : 5126,
            "count" : 64,
            "max" : [
                0.69333416223526,
                0.026560597121715546,
                0.47118499875068665
            ],
            "min" : [
                -0.7293480634689331,
                -0.026560597121715546,
                -0.38851016759872437
            ],
            "type" : "VEC3"
        },
        {
            "bufferView" : 9,
            "componentType" : 5126,
            "count" : 64,
            "type" : "VEC2"
        },
        {
            "bufferView" : 10,
            "componentType" : 5126,
            "count" : 64,
            "type" : "VEC3"
        },
        {
            "bufferView" : 11,
            "componentType" : 5123,
            "count" : 96,
            "type" : "SCALAR"
        },
        {
            "bufferView" : 12,
            "componentType" : 5126,
            "count" : 59,
            "max" : [
                1.0351263284683228,
                0.026538148522377014,
                0.578260064125061
            ],
            "min" : [
                0.015997301787137985,
                0.0005646413774229586,
                -0.8333669304847717
            ],
            "type" : "VEC3"
        },
        {
            "bufferView" : 13,
            "componentType" : 5126,
            "count" : 59,
            "type" : "VEC2"
        },
        {
            "bufferView" : 14,
            "componentType" : 5126,
            "count" : 59,
            "type" : "VEC3"
        },
        {
            "bufferView" : 15,
            "componentType" : 5123,
            "count" : 192,
            "type" : "SCALAR"
        },
        {
            "bufferView" : 16,
            "componentType" : 5126,
            "count" : 1802,
            "max" : [
                0.583748459815979,
                1.1255221366882324,
                0.583686351776123
            ],
            "min" : [
                -0.583748459815979,
                -0.0017047114670276642,
                -0.586530327796936
            ],
            "type" : "VEC3"
        },
        {
            "bufferView" : 17,
            "componentType" : 5126,
            "count" : 1802,
            "type" : "VEC2"
        },
        {
            "bufferView" : 18,
            "componentType" : 5126,
            "count" : 1802,
            "type" : "VEC3"
        },
        {
            "bufferView" : 19,
            "componentType" : 5123,
            "count" : 7680,
            "type" : "SCALAR"
        },
        {
            "bufferView" : 20,
            "componentType" : 5126,
            "count" : 4885,
            "max" : [
                3.7622666358947754,
                6.677027702331543,
                2.587404489517212
            ],
            "min" : [
                -3.7622666358947754,
                -5.612280368804932,
                -0.6288799047470093
            ],
            "type" : "VEC3"
        },
        {
            "bufferView" : 21,
            "componentType" : 5126,
            "count" : 4885,
            "type" : "VEC2"
        },
        {
            "bufferView" : 22,
            "componentType" : 5126,
            "count" : 4885,
            "type" : "VEC3"
        },
        {
            "bufferView" : 23,
            "componentType" : 5123,
            "count" : 19560,
            "type" : "SCALAR"
        },
        {
            "bufferView" : 24,
            "componentType" : 5126,
            "count" : 392,
            "max" : [
                0.412836492061615,
                -0.009424570016562939,
                1.1322709321975708
            ],
            "min" : [
                -0.4128364622592926,
                -3.655646324157715,
                0.467835396528244
            ],
            "type" : "VEC3"
        },
        {
            "bufferView" : 25,
            "componentType" : 5126,
            "count" : 392,
            "type" : "VEC2"
        },
        {
            "bufferView" : 26,
            "componentType" : 5126,
            "count" : 392,
            "type" : "VEC3"
        },
        {
            "bufferView" : 27,
            "componentType" : 5123,
            "count" : 1488,
            "type" : "SCALAR"
        }
    ],
    "bufferViews" : [
        {
            "buffer" : 0,
            "byteLength" : 288,
            "byteOffset" : 0,
            "target" : 34962
        },
        {
            "buffer" : 0,
            "byteLength" : 192,
            "byteOffset" : 288,
            "target" : 34962
        },
        {
            "buffer" : 0,
            "byteLength" : 288,
            "byteOffset" : 480,
            "target" : 34962
        },
        {
            "buffer" : 0,
            "byteLength" : 72,
            "byteOffset" : 768,
            "target" : 34963
        },
        {
            "buffer" : 0,
            "byteLength" : 480,
            "byteOffset" : 840,
            "target" : 34962
        },
        {
            "buffer" : 0,
            "byteLength" : 320,
            "byteOffset" : 1320,
            "target" : 34962
        },
        {
            "buffer" : 0,
            "byteLength" : 480,
            "byteOffset" : 1640,
            "target" : 34962
        },
        {
            "buffer" : 0,
            "byteLength" : 120,
            "byteOffset" : 2120,
            "target" : 34963
        },
        {
            "buffer" : 0,
            "byteLength" : 768,
            "byteOffset" : 2240,
            "target" : 34962
        },
        {
            "buffer" : 0,
            "byteLength" : 512,
            "byteOffset" : 3008,
            "target" : 34962
        },
        {
            "buffer" : 0,
            "byteLength" : 768,
            "byteOffset" : 3520,
            "target" : 34962
        },
        {
            "buffer" : 0,
            "byteLength" : 192,
            "byteOffset" : 4288,
            "target" : 34963
        },
        {
            "buffer" : 0,
            "byteLength" : 708,
            "byteOffset" : 4480,
            "target" : 34962
        },
        {
            "buffer" : 0,
            "byteLength" : 472,
            "byteOffset" : 5188,
            "target" : 34962
        },
        {
            "buffer" : 0,
            "byteLength" : 708,
            "byteOffset" : 5660,
            "target" : 34962
        },
        {
            "buffer" : 0,
            "byteLength" : 384,
            "byteOffset" : 6368,
            "target" : 34963
        },
        {
            "buffer" : 0,
            "byteLength" : 21624,
            "byteOffset" : 6752,
            "target" : 34962
        },
        {
            "buffer" : 0,
            "byteLength" : 14416,
            "byteOffset" : 28376,
            "target" : 34962
        },
        {
            "buffer" : 0,
            "byteLength" : 21624,
            "byteOffset" : 42792,
            "target" : 34962
        },
        {
            "buffer" : 0,
            "byteLength" : 15360,
            "byteOffset" : 64416,
            "target" : 34963
        },
        {
            "buffer" : 0,
            "byteLength" : 58620,
            "byteOffset" : 79776,
            "target" : 34962
        },
        {
            "buffer" : 0,
            "byteLength" : 39080,
            "byteOffset" : 138396,
            "target" : 34962
        },
        {
            "buffer" : 0,
            "byteLength" : 58620,
            "byteOffset" : 177476,
            "target" : 34962
        },
        {
            "buffer" : 0,
            "byteLength" : 39120,
            "byteOffset" : 236096,
            "target" : 34963
        },
        {
            "buffer" : 0,
            "byteLength" : 4704,
            "byteOffset" : 275216,
            "target" : 34962
        },
        {
            "buffer" : 0,
            "byteLength" : 3136,
            "byteOffset" : 279920,
            "target" : 34962
        },
        {
            "buffer" : 0,
            "byteLength" : 4704,
            "byteOffset" : 283056,
            "target" : 34962
        },
        {
            "buffer" : 0,
            "byteLength" : 2976,
            "byteOffset" : 287760,
            "target" : 34963
        }
    ],
    "buffers" : [
        {
            "byteLength" : 290736,
            "uri" : "data:application/octet-stream;base64,"
        }
    ]
}
