{
    "asset" : {
        "generator" : "Khronos glTF Blender I/O v3.4.49",
        "version" : "2.0"
    },
    "scene" : 0,
    "scenes" : [
        {
            "name" : "Scene",
            "nodes" : [
                0,
                1,
                2,
                3,
                4
            ]
        }
    ],
    "nodes" : [
        {
            "mesh" : 0,
            "name" : "Hull",
            "rotation" : [
                -0.70710688829422,
                0,
                0,
                0.7071066498756409
            ],
            "translation" : [
                -0.009337425231933594,
                0.6919271945953369,
                -6.106845378875732
            ]
        },
        {
            "mesh" : 1,
            "name" : "canard",
            "rotation" : [
                -0.001711480668745935,
                -0.035278111696243286,
                -0.1810038983821869,
                0.9828479290008545
            ],
            "translation" : [
                0.5155870318412781,
                0.4067281484603882,
                -2.819844961166382
            ]
        },
        {
            "mesh" : 2,
            "name" : "Rudder",
            "rotation" : [
                -0.053957659751176834,
                -0.053957659751176834,
                -0.7050450444221497,
                0.705045223236084
            ],
            "translation" : [
                0.019504159688949585,
                2.3112268447875977,
                -12.248151779174805
            ]
        },
        {
            "mesh" : 3,
            "name" : "Elevon2",
            "translation" : [
                2.336337089538574,
                1.1556386947631836,
                -12.203821182250977
            ]
        },
        {
            "mesh" : 4,
            "name" : "Engine",
            "rotation" : [
                -0.7117829918861389,
                0,
                0,
                0.7023994326591492
            ],
            "translation" : [
                -0.007881969213485718,
                0.6933484077453613,
                -11.30284309387207
            ]
        }
    ],
    "meshes" : [
        {
            "name" : "Hull",
            "primitives" : [
                {
                    "attributes" : {
                        "POSITION" : 0,
                        "TEXCOORD_0" : 1,
                        "NORMAL" : 2
                    },
                    "indices" : 3
                },
                {
                    "attributes" : {
                        "POSITION" : 4,
                        "TEXCOORD_0" : 5,
                        "NORMAL" : 6
                    },
                    "indices" : 7
                }
            ]
        },
        {
            "name" : "canard",
            "primitives" : [
                {
                    "attributes" : {
                        "POSITION" : 8,
                        "TEXCOORD_0" : 9,
                        "NORMAL" : 10
                    },
                    "indices" : 11
                }
            ]
        },
        {
            "name" : "Rudder",
            "primitives" : [
                {
                    "attributes" : {
                        "POSITION" : 12,
                        "TEXCOORD_0" : 13,
                        "NORMAL" : 14
                    },
                    "indices" : 15
                }
            ]
        },
        {
            "name" : "Elevon2",
            "primitives" : [
                {
                    "attributes" : {
                        "POSITION" : 16,
                        "TEXCOORD_0" : 17,
                        "NORMAL" : 18
                    },
                    "indices" : 19
                }
            ]
        },
        {
            "name" : "Engine",
            "primitives" : [
                {
                    "attributes" : {
                        "POSITION" : 20,
                        "TEXCOORD_0" : 21,
                        "NORMAL" : 22
                    },
                    "indices" : 23
                }
            ]
        }
    ],
    "accessors" : [
        {
            "bufferView" : 0,
            "componentType" : 5126,
            "count" : 5434,
            "max" : [
                3.762266159057617,
                6.671078681945801,
                2.4974663257598877
            ],
            "min" : [
                -3.7622663974761963,
                -6.101419925689697,
                -0.68401038646698
            ],
            "type" : "VEC3"
        },
        {
            "bufferView" : 1,
            "componentType" : 5126,
            "count" : 5434,
            "type" : "VEC2"
        },
        {
            "bufferView" : 2,
            "componentType" : 5126,
            "count" : 5434,
            "type" : "VEC3"
        },
        {
            "bufferView" : 3,
            "componentType" : 5123,
            "count" : 21360,
            "type" : "SCALAR"
        },
        {
            "bufferView" : 4,
            "componentType" : 5126,
            "count" : 295,
            "max" : [
                0.42660772800445557,
                -1.2178517580032349,
                0.9851815700531006
            ],
            "min" : [
                -0.42660772800445557,
                -4.536246299743652,
                0.341730535030365
            ],
            "type" : "VEC3"
        },
        {
            "bufferView" : 5,
            "componentType" : 5126,
            "count" : 295,
            "type" : "VEC2"
        },
        {
            "bufferView" : 6,
            "componentType" : 5126,
            "count" : 295,
            "type" : "VEC3"
        },
        {
            "bufferView" : 7,
            "componentType" : 5123,
            "count" : 1248,
            "type" : "SCALAR"
        },
        {
            "bufferView" : 8,
            "componentType" : 5126,
            "count" : 39,
            "max" : [
                1.2428600788116455,
                0.056873150169849396,
                0.6032792925834656
            ],
            "min" : [
                0.015997281298041344,
                -0.022652359679341316,
                -0.6032792925834656
            ],
            "type" : "VEC3"
        },
        {
            "bufferView" : 9,
            "componentType" : 5126,
            "count" : 39,
            "type" : "VEC2"
        },
        {
            "bufferView" : 10,
            "componentType" : 5126,
            "count" : 39,
            "type" : "VEC3"
        },
        {
            "bufferView" : 11,
            "componentType" : 5123,
            "count" : 120,
            "type" : "SCALAR"
        },
        {
            "bufferView" : 12,
            "componentType" : 5126,
            "count" : 38,
            "max" : [
                0.6933341026306152,
                0.026560593396425247,
                0.47118493914604187
            ],
            "min" : [
                -0.7293480038642883,
                -0.026560593396425247,
                -0.3885101079940796
            ],
            "type" : "VEC3"
        },
        {
            "bufferView" : 13,
            "componentType" : 5126,
            "count" : 38,
            "type" : "VEC2"
        },
        {
            "bufferView" : 14,
            "componentType" : 5126,
            "count" : 38,
            "type" : "VEC3"
        },
        {
            "bufferView" : 15,
            "componentType" : 5123,
            "count" : 60,
            "type" : "SCALAR"
        },
        {
            "bufferView" : 16,
            "componentType" : 5126,
            "count" : 40,
            "max" : [
                1.0068693161010742,
                0.15685413777828217,
                0.4509575366973877
            ],
            "min" : [
                -1.5713858604431152,
                -0.12345058470964432,
                -0.02477649599313736
            ],
            "type" : "VEC3"
        },
        {
            "bufferView" : 17,
            "componentType" : 5126,
            "count" : 40,
            "type" : "VEC2"
        },
        {
            "bufferView" : 18,
            "componentType" : 5126,
            "count" : 40,
            "type" : "VEC3"
        },
        {
            "bufferView" : 19,
            "componentType" : 5123,
            "count" : 60,
            "type" : "SCALAR"
        },
        {
            "bufferView" : 20,
            "componentType" : 5126,
            "count" : 1848,
            "max" : [
                0.583748459815979,
                1.1255221366882324,
                0.583686351776123
            ],
            "min" : [
                -0.583748459815979,
                -0.0017047118162736297,
                -0.586530327796936
            ],
            "type" : "VEC3"
        },
        {
            "bufferView" : 21,
            "componentType" : 5126,
            "count" : 1848,
            "type" : "VEC2"
        },
        {
            "bufferView" : 22,
            "componentType" : 5126,
            "count" : 1848,
            "type" : "VEC3"
        },
        {
            "bufferView" : 23,
            "componentType" : 5123,
            "count" : 7680,
            "type" : "SCALAR"
        }
    ],
    "bufferViews" : [
        {
            "buffer" : 0,
            "byteLength" : 65208,
            "byteOffset" : 0,
            "target" : 34962
        },
        {
            "buffer" : 0,
            "byteLength" : 43472,
            "byteOffset" : 65208,
            "target" : 34962
        },
        {
            "buffer" : 0,
            "byteLength" : 65208,
            "byteOffset" : 108680,
            "target" : 34962
        },
        {
            "buffer" : 0,
            "byteLength" : 42720,
            "byteOffset" : 173888,
            "target" : 34963
        },
        {
            "buffer" : 0,
            "byteLength" : 3540,
            "byteOffset" : 216608,
            "target" : 34962
        },
        {
            "buffer" : 0,
            "byteLength" : 2360,
            "byteOffset" : 220148,
            "target" : 34962
        },
        {
            "buffer" : 0,
            "byteLength" : 3540,
            "byteOffset" : 222508,
            "target" : 34962
        },
        {
            "buffer" : 0,
            "byteLength" : 2496,
            "byteOffset" : 226048,
            "target" : 34963
        },
        {
            "buffer" : 0,
            "byteLength" : 468,
            "byteOffset" : 228544,
            "target" : 34962
        },
        {
            "buffer" : 0,
            "byteLength" : 312,
            "byteOffset" : 229012,
            "target" : 34962
        },
        {
            "buffer" : 0,
            "byteLength" : 468,
            "byteOffset" : 229324,
            "target" : 34962
        },
        {
            "buffer" : 0,
            "byteLength" : 240,
            "byteOffset" : 229792,
            "target" : 34963
        },
        {
            "buffer" : 0,
            "byteLength" : 456,
            "byteOffset" : 230032,
            "target" : 34962
        },
        {
            "buffer" : 0,
            "byteLength" : 304,
            "byteOffset" : 230488,
            "target" : 34962
        },
        {
            "buffer" : 0,
            "byteLength" : 456,
            "byteOffset" : 230792,
            "target" : 34962
        },
        {
            "buffer" : 0,
            "byteLength" : 120,
            "byteOffset" : 231248,
            "target" : 34963
        },
        {
            "buffer" : 0,
            "byteLength" : 480,
            "byteOffset" : 231368,
            "target" : 34962
        },
        {
            "buffer" : 0,
            "byteLength" : 320,
            "byteOffset" : 231848,
            "target" : 34962
        },
        {
            "buffer" : 0,
            "byteLength" : 480,
            "byteOffset" : 232168,
            "target" : 34962
        },
        {
            "buffer" : 0,
            "byteLength" : 120,
            "byteOffset" : 232648,
            "target" : 34963
        },
        {
            "buffer" : 0,
            "byteLength" : 22176,
            "byteOffset" : 232768,
            "target" : 34962
        },
        {
            "buffer" : 0,
            "byteLength" : 14784,
            "byteOffset" : 254944,
            "target" : 34962
        },
        {
            "buffer" : 0,
            "byteLength" : 22176,
            "byteOffset" : 269728,
            "target" : 34962
        },
        {
            "buffer" : 0,
            "byteLength" : 15360,
            "byteOffset" : 291904,
            "target" : 34963
        }
    ],
    "buffers" : [
        {
            "byteLength" : 307264,
            "uri" : "data:application/octet-stream;base64,"
        }
    ]
}
