<?xml version="1.0" encoding="UTF-8" standalone="no"?>
<!DOCTYPE svg PUBLIC "-//W3C//DTD SVG 1.1//EN" "http://www.w3.org/Graphics/SVG/1.1/DTD/svg11.dtd">
<svg width="100%" height="100%" viewBox="0 0 256 256" version="1.1" xmlns="http://www.w3.org/2000/svg" xmlns:xlink="http://www.w3.org/1999/xlink" xml:space="preserve" xmlns:serif="http://www.serif.com/" style="fill-rule:evenodd;clip-rule:evenodd;stroke-linecap:round;stroke-linejoin:round;stroke-miterlimit:1.5;">
    <g transform="matrix(0.0846667,0,0,0.0846667,0,0)">
        <path d="M1511.81,0C2346.2,0 3023.62,677.42 3023.62,1511.81C3023.62,2346.2 2346.2,3023.62 1511.81,3023.62C677.42,3023.62 0,2346.2 0,1511.81C0,677.42 677.42,0 1511.81,0ZM1511.81,23.622C2333.16,23.622 3000,690.457 3000,1511.81C3000,2333.16 2333.16,3000 1511.81,3000C690.457,3000 23.622,2333.16 23.622,1511.81C23.622,690.457 690.457,23.622 1511.81,23.622Z" style="fill:white;"/>
    </g>
    <path d="M128,0L128,255.999" style="fill:none;stroke:white;stroke-width:1px;"/>
    <g transform="matrix(0.5,-0.866025,0.866025,0.5,-46.8507,174.851)">
        <path d="M128,0L128,255.999" style="fill:none;stroke:white;stroke-width:1px;"/>
    </g>
    <g transform="matrix(-0.5,-0.866025,0.866025,-0.5,81.1493,302.85)">
        <path d="M128,0L128,255.999" style="fill:none;stroke:white;stroke-width:1px;"/>
    </g>
</svg>
